<svg width="190" height="71" viewBox="0 0 190 71" fill="none" xmlns="http://www.w3.org/2000/svg">
<path d="M11.3932 27.0517V0H0V3.96917L5.04477 5.68716V41.6587L0.595882 43.3767V46.5179H15.8434V43.3767L11.3946 41.6587V27.0517H11.3932ZM18.6328 27.2577L25.5744 20.3251L32.1021 18.0134V14.0415H17.685V17.0709L20.8882 18.4348L12.4636 27.5728L15.9001 32.6891L25.2185 46.5179H32.8139V43.4346L28.7789 40.2962L18.6328 27.2577ZM61.0779 24.2364C61.0779 19.8512 60.8986 13.2148 49.6847 13.2148C45.5335 13.3672 41.4391 14.2293 37.5796 15.7636L38.8267 20.033C41.8528 19.0043 45.0087 18.4056 48.2017 18.2544C54.3722 18.2544 54.7281 20.7439 54.7281 24.5959V27.4381C52.652 27.2591 50.8724 27.3197 48.0251 27.3197C41.3787 27.3197 35.1489 29.7432 35.1489 37.6869C35.1489 44.6208 40.4296 47.2288 45.5917 47.2288C47.6632 47.2235 49.6958 46.666 51.4794 45.6139C53.2631 44.5619 54.7332 43.0533 55.7379 41.2441L56.0938 46.5179H65.5874V43.3767L61.0779 41.6587V24.2364ZM54.7861 32.6514C54.7861 39.3483 51.4036 42.1906 47.4292 42.1906C43.6908 42.1906 41.8519 39.9407 41.8519 37.2735C41.8519 32.6514 45.411 31.4665 50.6324 31.4665C52.1154 31.4665 53.2451 31.4665 54.7861 31.5837V32.6514ZM190 17.4748V14.0429H177.124V17.3038L179.792 18.665L174.277 26.3099L166.681 14.1089H158.076V17.7172L162.821 19.6735L170.3 30.341L162.587 41.0071L157.959 43.0199V46.5206H170.417V43.2623L167.688 41.7207L173.326 33.956L180.922 46.5206H189.819V42.8436L185.013 41.1242L177.299 29.6301L184.659 19.8512L190 17.4748ZM141.467 13.2095C131.794 13.2095 126.334 19.1336 126.334 30.2157C126.334 41.2979 131.79 47.2301 141.463 47.2301C151.194 47.2301 156.592 41.306 156.592 30.2225C156.592 19.139 151.194 13.2148 141.463 13.2148L141.467 13.2095ZM141.467 42.9553C135.175 42.9553 133.041 37.7407 133.041 30.2736C133.041 22.75 135.175 17.4748 141.467 17.4748C147.758 17.4748 149.889 22.6894 149.889 30.2157C149.884 37.6869 147.749 42.9607 141.463 42.9607L141.467 42.9553ZM98.8139 24.1058C98.8139 21.3215 99.2292 13.2 88.7864 13.2C86.6797 13.1706 84.6011 13.6841 82.751 14.6909C80.901 15.6977 79.3422 17.1638 78.225 18.9478L77.8071 14.0873H67.7755V18.0134L72.8796 19.7906V41.6587L68.4307 43.3767V46.5179H83.0864V43.3767L79.228 41.6587V22.4565C79.228 22.4565 82.9664 18.2504 87.356 18.2504C92.5801 18.2504 92.4008 21.8641 92.4008 24.4141V41.6587L88.5437 43.3767V46.5179H103.26V43.3767L98.8112 41.6587L98.8139 24.1058ZM119.561 42.309C114.456 42.309 114.695 37.8054 114.695 36.4442V18.3688H124.426V14.0429H114.695V6.04396H110.838L108.344 14.1089H102.951V18.3756H108.293V36.9167C108.293 40.7095 108.885 46.9918 117.488 46.9918C120.095 46.9785 122.689 46.6199 125.201 45.9255L124.367 41.7772C122.779 42.0637 121.173 42.2413 119.561 42.309Z" fill="#37424A"/>
<path d="M0 63.4788C0 60.379 1.60644 58.8096 3.96482 58.8096C4.88562 58.7468 5.80424 58.9599 6.60346 59.4219V61.0166H5.44341C5.22671 60.0472 4.89517 59.5751 3.92654 59.5751C2.61336 59.5751 1.82241 60.4932 1.82241 63.4152C1.82241 66.4904 2.67692 67.1916 4.00238 67.1916C5.01002 67.1916 5.39213 66.7578 5.57055 65.7371H6.66702V67.2682C5.85385 67.759 4.9124 67.9947 3.9641 67.9448C1.32619 67.9448 0 66.2858 0 63.4788Z" fill="#00A9E0"/>
<path d="M12.9252 65.9542C12.9252 66.886 13.0783 67.0009 13.7797 67.0385V67.4983L11.9695 67.9573H11.7788C11.6036 67.6198 11.4952 67.2516 11.4596 66.873C11.2112 67.2069 10.8881 67.4778 10.5161 67.664C10.1442 67.8502 9.73377 67.9464 9.31788 67.945C9.07965 67.9748 8.83778 67.9504 8.61028 67.8736C8.38279 67.7968 8.17555 67.6697 8.00399 67.5016C7.83243 67.3335 7.70097 67.1288 7.61943 66.9028C7.53788 66.6769 7.50835 66.4354 7.53303 66.1964V63.3149C7.53303 62.3838 7.36761 62.2559 6.7168 62.2306V61.7455L8.79492 61.2734H9.08819V65.8523C9.08819 66.5918 9.36845 66.886 9.96798 66.886C10.233 66.8822 10.4945 66.8236 10.7358 66.7137C10.9771 66.6039 11.193 66.4452 11.37 66.2477V63.3149C11.37 62.3838 11.2046 62.2559 10.5545 62.2306V61.7455L12.6326 61.2734H12.9252V65.9542Z" fill="#00A9E0"/>
<path d="M18.2271 61.219C18.374 61.2164 18.5204 61.2379 18.6605 61.2826L18.3419 62.9156C18.1631 62.848 17.9723 62.8177 17.7814 62.8267C16.7738 62.8267 16.4812 63.1831 16.4812 64.2934V66.3898C16.4812 67.1127 16.6091 67.2573 17.5264 67.2826V67.793H14.0845V67.2826C14.7729 67.2443 14.9261 67.1163 14.9261 66.3898V63.3153C14.9261 62.3843 14.7606 62.2563 14.0723 62.231V61.7459L15.946 61.2356H16.1367C16.3371 61.7301 16.4411 62.2584 16.4429 62.792C16.8503 61.7973 17.5387 61.219 18.2271 61.219Z" fill="#00A9E0"/>
<path d="M22.8782 61.2189C23.0251 61.2165 23.1715 61.238 23.3116 61.2825L22.9923 62.9156C22.8135 62.8479 22.6227 62.8177 22.4318 62.8267C21.4241 62.8267 21.1316 63.183 21.1316 64.2934V66.3898C21.1316 67.1127 21.2594 67.2573 22.1775 67.2826V67.7929H18.7349V67.2826C19.4233 67.2443 19.5764 67.1163 19.5764 66.3898V63.3153C19.5764 62.3842 19.411 62.2563 18.7227 62.231V61.7459L20.5964 61.2356H20.7878C20.9879 61.7301 21.0918 62.2584 21.094 62.792C21.5014 61.7972 22.1898 61.2189 22.8782 61.2189Z" fill="#00A9E0"/>
<path d="M28.6655 66.5041L28.9464 66.9885C28.2756 67.6139 27.39 67.9569 26.4732 67.9463C24.5605 67.9463 23.4395 66.7087 23.4395 64.5646C23.4395 62.4472 24.6508 61.2227 26.3591 61.2227C28.1829 61.2227 29.062 62.3706 29.062 64.3224V64.7692H25.0972C25.1355 66.4022 25.6967 66.9885 26.9716 66.9885C27.5673 66.9683 28.149 66.802 28.6655 66.5041V66.5041ZM25.1087 64.0166H27.4801C27.4801 62.4725 27.1609 61.9369 26.3576 61.9369C25.6057 61.9369 25.1976 62.4212 25.1087 64.0166V64.0166Z" fill="#00A9E0"/>
<path d="M35.8178 66.3879C35.8178 67.1108 35.9579 67.2424 36.608 67.2807V67.791H33.4298V67.2807C34.1564 67.2554 34.259 67.1021 34.259 66.4385V63.4269C34.259 62.6614 33.9397 62.3816 33.3785 62.3816C32.8146 62.3839 32.2744 62.6083 31.8746 63.0062V66.4385C31.8746 67.1021 31.9764 67.2554 32.7031 67.2807V67.791H29.483V67.2807C30.1714 67.2424 30.3245 67.1144 30.3245 66.3879V63.3141C30.3245 62.3831 30.1591 62.2551 29.4707 62.2298V61.7447L31.3444 61.2344H31.5351C31.6972 61.5933 31.7964 61.9775 31.8284 62.37C32.09 62.0311 32.4237 61.7545 32.8052 61.5604C33.1867 61.3662 33.6065 61.2593 34.0343 61.2474C34.2778 61.2291 34.5223 61.2644 34.7506 61.351C34.9789 61.4376 35.1855 61.5732 35.3557 61.7484C35.5259 61.9236 35.6556 62.134 35.7357 62.3648C35.8158 62.5956 35.8443 62.8412 35.8192 63.0843L35.8178 66.3879Z" fill="#00A9E0"/>
<path d="M42.1133 63.0453H40.9526C40.863 62.2798 40.6976 61.948 40.0988 61.948C39.3338 61.948 38.6324 62.4966 38.6324 64.4232C38.6324 66.401 39.3208 67.0386 40.379 67.0386C40.9624 67.0491 41.5293 66.8452 41.9725 66.4653L42.304 66.8991C42.0187 67.2343 41.6626 67.5021 41.2614 67.6831C40.8602 67.8641 40.4239 67.9538 39.9839 67.9458C38.3392 67.9458 37 66.8868 37 64.6928C37 62.4475 38.3898 61.2482 40.0988 61.2482C40.8068 61.2062 41.5105 61.3845 42.1133 61.7586V63.0453Z" fill="#00A9E0"/>
<path d="M43.1576 69.3987C44.2165 69.1819 45.019 68.9007 45.4401 67.7274L44.8283 67.791C44.6332 67.0168 44.395 66.2542 44.1147 65.5067L43.12 62.777C42.8903 62.1387 42.7249 61.9862 42.2402 61.9218V61.3984H45.4148V61.9218C44.8153 61.9471 44.6239 62.0498 44.6239 62.2919C44.6364 62.4023 44.6666 62.51 44.7135 62.6107L45.6055 65.2659C45.758 65.7108 45.8733 66.1675 45.9501 66.6315H46.0006C46.085 66.2259 46.1916 65.8253 46.3199 65.4315L47.1997 62.6122C47.2318 62.5206 47.2574 62.4269 47.2763 62.3317C47.3015 62.0382 47.1101 61.9486 46.4723 61.9233V61.3984H49.0221V61.9218C48.5165 61.9862 48.3467 62.1004 48.117 62.7517L46.2946 67.8684C45.7464 69.3864 45.045 70.2286 43.6553 70.4708L43.1576 69.3987Z" fill="#00A9E0"/>
<path d="M61.3604 59.4834C60.4423 59.5347 60.3405 59.8022 60.3918 60.4528L60.8974 66.2706C60.9617 67.0109 61.0765 67.2538 61.7902 67.2827V67.7931H58.3989V67.2827C59.2787 67.2574 59.3422 67.0145 59.2917 66.3639L58.9348 61.9882C58.9095 61.6181 58.8965 61.0304 58.8965 60.7116V60.4441H58.833C58.7575 60.9256 58.6552 61.4025 58.5267 61.8725L56.7931 67.7931H55.7985L54.0418 62.1776C53.8781 61.6037 53.7503 61.0202 53.659 60.4304H53.5824C53.5824 60.6848 53.5441 61.4381 53.5059 62.1523L53.2639 66.3494C53.2256 67.0131 53.2639 67.2682 54.1429 67.2813V67.7916H51.4277V67.2813C52.1544 67.256 52.2822 67.0384 52.3335 66.2692L52.7539 60.4513C52.8052 59.8137 52.7286 59.5202 51.7846 59.4819V58.9629H54.6919L56.2861 64.0152C56.4435 64.5438 56.5502 65.0863 56.6046 65.6352H56.6682C56.744 65.0937 56.8503 64.557 56.9867 64.0275L58.4408 58.9629H61.3597L61.3604 59.4834Z" fill="#00A9E0"/>
<path d="M68.1909 67.1417V67.6398C67.8439 67.8006 67.4645 67.8793 67.0822 67.8697C66.2407 67.8697 65.9344 67.5118 65.8456 66.9762C65.6732 67.2889 65.4174 67.5476 65.1067 67.7234C64.796 67.8992 64.4426 67.9851 64.086 67.9716C62.9129 67.9716 62.0469 67.3716 62.0469 66.1217C62.0469 64.6036 63.2705 64.0253 65.2713 64.0253C65.4245 64.0253 65.6411 64.0253 65.8066 64.0383V63.468C65.8066 62.4342 65.5646 61.9752 64.7874 61.9752C63.8953 61.9752 63.6526 62.4978 63.5507 63.1362H62.429V61.9116C63.2204 61.4804 64.1032 61.2443 65.0041 61.2227C66.4574 61.2227 67.3754 61.8733 67.3754 63.366C67.3754 63.7485 67.3242 64.8328 67.3242 65.9938C67.3242 66.9509 67.452 67.1041 68.1909 67.1417ZM65.3356 64.6897C64.2008 64.6897 63.6656 65.0728 63.6656 65.9403C63.6656 66.7564 63.9841 66.9993 64.5829 66.9993C64.8177 66.9871 65.046 66.918 65.2482 66.798C65.4504 66.678 65.6204 66.5107 65.7437 66.3104L65.7813 64.7027C65.6801 64.7056 65.4374 64.6897 65.3356 64.6897Z" fill="#00A9E0"/>
<path d="M74.7411 66.3879C74.7411 67.1108 74.8812 67.2424 75.532 67.2807V67.791H72.3574V67.2807C73.0841 67.2554 73.1859 67.1021 73.1859 66.4385V63.4269C73.1859 62.6614 72.8674 62.3816 72.3061 62.3816C71.7421 62.384 71.2016 62.6083 70.8015 63.0062V66.4385C70.8015 67.1021 70.9041 67.2554 71.6308 67.2807V67.791H68.4049V67.2807C69.0932 67.2424 69.2464 67.1144 69.2464 66.3879V63.3141C69.2464 62.3831 69.081 62.2551 68.3926 62.2298V61.7447L70.2663 61.2344H70.4577C70.6194 61.5934 70.7186 61.9775 70.751 62.37C71.0125 62.0312 71.3461 61.7547 71.7275 61.5605C72.1088 61.3664 72.5285 61.2594 72.9562 61.2474C73.1997 61.2289 73.4443 61.2642 73.6727 61.3507C73.901 61.4373 74.1076 61.5729 74.2779 61.7481C74.4481 61.9233 74.5778 62.1338 74.6579 62.3647C74.7379 62.5955 74.7663 62.8412 74.7411 63.0843V66.3879Z" fill="#00A9E0"/>
<path d="M81.9944 67.1417V67.6398C81.6471 67.8006 81.2675 67.8793 80.8849 67.8697C80.0434 67.8697 79.7372 67.5118 79.6483 66.9762C79.4759 67.2889 79.2202 67.5476 78.9095 67.7234C78.5988 67.8992 78.2454 67.9851 77.8887 67.9716C76.7157 67.9716 75.8496 67.3716 75.8496 66.1217C75.8496 64.6036 77.0732 64.0253 79.0748 64.0253C79.2279 64.0253 79.4446 64.0253 79.6101 64.0383V63.468C79.6101 62.4342 79.3681 61.9752 78.5901 61.9752C77.698 61.9752 77.4561 62.4978 77.3535 63.1362H76.2317V61.9116C77.0232 61.4804 77.906 61.2443 78.8068 61.2227C80.2601 61.2227 81.1782 61.8733 81.1782 63.366C81.1782 63.7485 81.1269 64.8328 81.1269 65.9938C81.1276 66.9509 81.2541 67.1041 81.9944 67.1417ZM79.1376 64.6897C78.0029 64.6897 77.4676 65.0728 77.4676 65.9403C77.4676 66.7564 77.7862 66.9993 78.3857 66.9993C78.6204 66.9872 78.8486 66.9181 79.0507 66.7981C79.2528 66.6781 79.4227 66.5107 79.5458 66.3104L79.5833 64.7027C79.4822 64.7056 79.2395 64.6897 79.1376 64.6897Z" fill="#00A9E0"/>
<path d="M82.1328 68.8634C82.1446 68.6679 82.2121 68.4799 82.3273 68.3215C82.4425 68.1632 82.6006 68.0412 82.7829 67.9699L83.7284 67.9446C83.6254 68.1411 83.5727 68.3603 83.5753 68.5822C83.5753 69.2458 83.9451 69.5646 85.0156 69.5646C86.2277 69.5646 86.6473 69.1432 86.6473 68.4803C86.6473 67.7914 86.2905 67.6258 84.8415 67.5745C84.3438 67.5615 83.7703 67.5232 83.5153 67.4848C83.3872 67.4742 83.2623 67.4383 83.148 67.3793C83.0337 67.3203 82.9322 67.2392 82.8492 67.1408C82.7663 67.0424 82.7036 66.9286 82.6647 66.8059C82.6258 66.6832 82.6115 66.5541 82.6226 66.4258C82.6226 65.8648 83.1455 65.4181 83.9227 65.2012C83.4792 65.1359 83.074 64.9129 82.7812 64.5731C82.4885 64.2333 82.3278 63.7993 82.3286 63.3506C82.3286 62.0371 83.3362 61.2332 84.9037 61.2332C85.3014 61.2369 85.6966 61.297 86.0774 61.4118C86.3488 61.5034 86.632 61.555 86.9182 61.5651C87.3542 61.527 87.766 61.3478 88.0913 61.0547L88.6395 62.0877C88.3531 62.2822 88.0162 62.3887 87.6702 62.3942C87.3699 62.3894 87.0741 62.3196 86.8034 62.1896C87.0063 62.3262 87.1729 62.5103 87.2885 62.726C87.404 62.9417 87.4651 63.1825 87.4664 63.4272C87.4664 64.9207 86.0131 65.3668 84.7216 65.3668H84.6198C84.263 65.4817 84.021 65.6863 84.021 65.9154C84.021 66.0947 84.1228 66.2089 84.4284 66.2219L85.6274 66.2603C87.1949 66.2986 88.0494 66.7193 88.0494 68.0848C88.0494 69.5386 86.7362 70.2665 85.0026 70.2665C83.2163 70.2665 82.1328 69.6918 82.1328 68.8634ZM85.8954 63.3506C85.8954 62.3306 85.5769 61.9352 84.8885 61.9352C84.2384 61.9352 83.8938 62.3306 83.8938 63.313C83.8938 64.2694 84.2507 64.6909 84.9008 64.6909C85.5617 64.688 85.8954 64.2824 85.8954 63.3506Z" fill="#00A9E0"/>
<path d="M93.6974 66.5041L93.9777 66.9885C93.307 67.6141 92.4213 67.9571 91.5045 67.9463C89.5918 67.9463 88.4707 66.7087 88.4707 64.5646C88.4707 62.4472 89.682 61.2227 91.3903 61.2227C93.2135 61.2227 94.0933 62.3706 94.0933 64.3224V64.7692H90.1277C90.1667 66.4022 90.7272 66.9885 92.0058 66.9885C92.6008 66.968 93.1816 66.8017 93.6974 66.5041V66.5041ZM90.1407 64.0167H92.5114C92.5114 62.4725 92.1928 61.9369 91.3896 61.9369C90.6355 61.9369 90.2303 62.4212 90.1385 64.0167H90.1407Z" fill="#00A9E0"/>
<path d="M102.54 61.2459C102.779 61.2334 103.019 61.2732 103.241 61.3627C103.463 61.4522 103.663 61.5892 103.827 61.7642C103.991 61.9391 104.115 62.1477 104.19 62.3755C104.265 62.6032 104.289 62.8446 104.261 63.0828V66.3879C104.261 67.1108 104.402 67.2554 105.056 67.2807V67.791H101.945V67.2807C102.633 67.2554 102.71 67.1144 102.71 66.4508V63.4269C102.71 62.6614 102.455 62.3816 101.945 62.3816C101.459 62.3927 100.993 62.5782 100.632 62.9043V66.4508C100.632 67.1144 100.747 67.2554 101.346 67.2807V67.791H98.2987V67.2807C98.9871 67.2554 99.0637 67.1144 99.0637 66.4508V63.4269C99.0637 62.6614 98.8217 62.3816 98.2987 62.3816C97.7795 62.401 97.2853 62.6095 96.909 62.9679V66.4508C96.909 67.1144 96.9855 67.2554 97.6739 67.2807V67.791H94.5123V67.2807C95.2007 67.2554 95.3538 67.1144 95.3538 66.3879V63.3141C95.3538 62.3831 95.1884 62.2551 94.5 62.2298V61.7447L96.3737 61.2344H96.5651C96.7142 61.5791 96.809 61.9449 96.8461 62.3187C97.0907 61.9995 97.4024 61.7381 97.7591 61.553C98.1159 61.3678 98.509 61.2635 98.9105 61.2474C99.2499 61.2372 99.5836 61.3356 99.8633 61.5283C100.143 61.721 100.354 61.9978 100.466 62.3187C100.715 62.0019 101.029 61.7421 101.387 61.5571C101.744 61.372 102.138 61.2659 102.54 61.2459V61.2459Z" fill="#00A9E0"/>
<path d="M110.671 66.5041L110.952 66.9885C110.281 67.6139 109.396 67.9569 108.479 67.9463C106.566 67.9463 105.445 66.7087 105.445 64.5646C105.445 62.4472 106.656 61.2227 108.364 61.2227C110.188 61.2227 111.067 62.3706 111.067 64.3224V64.7692H107.102C107.141 66.4022 107.702 66.9885 108.977 66.9885C109.573 66.9684 110.155 66.8021 110.671 66.5041ZM107.115 64.0166H109.486C109.486 62.4725 109.167 61.9369 108.363 61.9369C107.612 61.9369 107.204 62.4212 107.115 64.0166V64.0166Z" fill="#00A9E0"/>
<path d="M117.822 66.3879C117.822 67.1108 117.963 67.2424 118.613 67.2807V67.791H115.439V67.2807C116.165 67.2554 116.268 67.1021 116.268 66.4385V63.4269C116.268 62.6614 115.949 62.3816 115.387 62.3816C114.824 62.3839 114.283 62.6083 113.884 63.0062V66.4385C113.884 67.1021 113.985 67.2554 114.713 67.2807V67.791H111.487V67.2807C112.175 67.2424 112.328 67.1144 112.328 66.3879V63.3141C112.328 62.3831 112.163 62.2551 111.475 62.2298V61.7447L113.348 61.2344H113.539C113.701 61.5933 113.8 61.9775 113.832 62.37C114.094 62.0311 114.428 61.7545 114.809 61.5604C115.191 61.3662 115.61 61.2593 116.038 61.2474C116.282 61.2292 116.526 61.2646 116.754 61.3512C116.982 61.4377 117.188 61.5732 117.359 61.7482C117.529 61.9232 117.658 62.1334 117.738 62.364C117.819 62.5946 117.847 62.84 117.822 63.0828V66.3879Z" fill="#00A9E0"/>
<path d="M122.473 62.2544H121.135V65.8775C121.135 66.8347 121.262 67.1404 121.899 67.1404C122.148 67.1326 122.393 67.0855 122.626 67.0009L122.779 67.5619C122.321 67.8345 121.796 67.9758 121.262 67.9703C120.191 67.9703 119.579 67.5236 119.579 66.184V62.2544H118.814V61.7057L119.669 61.3869C119.75 60.7797 119.949 60.1944 120.255 59.6643L121.25 59.5117C121.174 60.138 121.135 60.7683 121.135 61.3992H122.662L122.473 62.2544Z" fill="#00A9E0"/>
<path d="M130.426 65.2401H127.609L127.24 66.469C127.2 66.5925 127.178 66.7215 127.177 66.8514C127.177 67.1832 127.444 67.2468 128.056 67.2721V67.7955H125.275V67.2721C125.849 67.2208 126.04 67.0676 126.282 66.3158L128.666 58.9668H130.055L132.49 66.2897C132.707 66.9403 132.86 67.2208 133.446 67.2721V67.7955H130.051V67.2721C130.638 67.2468 130.868 67.1189 130.868 66.8131C130.864 66.6959 130.842 66.5799 130.804 66.469L130.426 65.2401ZM127.837 64.4492H130.184L129.546 62.4201C129.266 61.515 129.1 60.8384 129.037 60.5196H128.972C128.883 60.8897 128.743 61.476 128.449 62.4331L127.837 64.4492Z" fill="#00A9E0"/>
<path d="M139.476 65.9542C139.476 66.886 139.629 67.0009 140.33 67.0385V67.4983L138.52 67.9573H138.329C138.154 67.6196 138.046 67.2515 138.01 66.873C137.761 67.2069 137.438 67.4778 137.066 67.664C136.694 67.8502 136.284 67.9464 135.868 67.945C135.63 67.9748 135.388 67.9504 135.16 67.8736C134.933 67.7968 134.726 67.6697 134.554 67.5016C134.382 67.3335 134.251 67.1288 134.169 66.9028C134.088 66.6769 134.058 66.4354 134.083 66.1964V63.3149C134.083 62.3838 133.918 62.2559 133.268 62.2306V61.7455L135.346 61.2734H135.635V65.8523C135.635 66.5918 135.916 66.886 136.515 66.886C136.78 66.8821 137.042 66.8234 137.283 66.7135C137.524 66.6037 137.74 66.4451 137.917 66.2477V63.3149C137.917 62.3838 137.752 62.2559 137.101 62.2306V61.7455L139.179 61.2734H139.472L139.476 65.9542Z" fill="#00A9E0"/>
<path d="M144.218 62.2544H142.88V65.8775C142.88 66.8347 143.007 67.1404 143.644 67.1404C143.892 67.1325 144.138 67.0855 144.372 67.0009L144.525 67.5619C144.066 67.8345 143.541 67.9758 143.008 67.9703C141.937 67.9703 141.325 67.5236 141.325 66.184V62.2544H140.561V61.7057L141.415 61.3869C141.495 60.7798 141.694 60.1944 142.001 59.6643L142.995 59.5117C142.919 60.138 142.881 60.7683 142.881 61.3992H144.41L144.218 62.2544Z" fill="#00A9E0"/>
<path d="M147.722 67.9463C145.849 67.9463 144.65 66.7174 144.65 64.6036C144.65 62.5362 145.9 61.2227 147.761 61.2227C149.635 61.2227 150.833 62.4725 150.833 64.5646C150.833 66.8106 149.46 67.9463 147.722 67.9463ZM147.722 61.9463C146.703 61.9463 146.35 62.7371 146.35 64.5487C146.35 66.3986 146.694 67.2408 147.777 67.2408C148.682 67.2408 149.142 66.3733 149.142 64.561C149.138 62.6656 148.654 61.9492 147.722 61.9492V61.9463Z" fill="#00A9E0"/>
<path d="M159.347 61.2459C159.586 61.2334 159.825 61.2732 160.047 61.3627C160.27 61.4522 160.47 61.5892 160.634 61.7642C160.797 61.9391 160.921 62.1477 160.996 62.3755C161.071 62.6032 161.096 62.8446 161.068 63.0828V66.3879C161.068 67.1108 161.208 67.2554 161.859 67.2807V67.791H158.747V67.2807C159.436 67.2554 159.513 67.1144 159.513 66.4508V63.4269C159.513 62.6614 159.258 62.3816 158.747 62.3816C158.261 62.3928 157.795 62.5783 157.435 62.9043V66.4508C157.435 67.1144 157.549 67.2554 158.149 67.2807V67.791H155.101V67.2807C155.79 67.2554 155.866 67.1144 155.866 66.4508V63.4269C155.866 62.6614 155.624 62.3816 155.101 62.3816C154.582 62.4009 154.088 62.6094 153.712 62.9679V66.4508C153.712 67.1144 153.788 67.2554 154.477 67.2807V67.791H151.315V67.2807C152.003 67.2554 152.157 67.1144 152.157 66.3879V63.3141C152.157 62.3831 151.991 62.2551 151.303 62.2298V61.7447L153.176 61.2344H153.368C153.517 61.5791 153.611 61.9449 153.648 62.3187C153.893 61.9997 154.205 61.7384 154.562 61.5533C154.919 61.3682 155.312 61.2637 155.713 61.2474C156.053 61.2374 156.386 61.3358 156.666 61.5284C156.946 61.7211 157.157 61.9979 157.268 62.3187C157.518 62.0014 157.832 61.7414 158.191 61.5564C158.55 61.3713 158.944 61.2654 159.347 61.2459Z" fill="#00A9E0"/>
<path d="M168.321 67.1407V67.6388C167.973 67.7996 167.594 67.8783 167.211 67.8687C166.37 67.8687 166.064 67.5108 165.974 66.9752C165.802 67.2879 165.547 67.5465 165.236 67.7223C164.925 67.8981 164.572 67.984 164.216 67.9706C163.043 67.9706 162.176 67.3706 162.176 66.1207C162.176 64.6026 163.399 64.0243 165.401 64.0243C165.554 64.0243 165.771 64.0243 165.936 64.0373V63.467C165.936 62.4332 165.694 61.9742 164.917 61.9742C164.024 61.9742 163.782 62.4968 163.68 63.1351H162.558V61.9106C163.35 61.4781 164.233 61.2409 165.135 61.2188C166.588 61.2187 167.506 61.8694 167.506 63.3621C167.506 63.7445 167.455 64.8289 167.455 65.9899C167.454 66.9499 167.581 67.1031 168.321 67.1407ZM165.465 64.6887C164.33 64.6887 163.795 65.0718 163.795 65.9393C163.795 66.7554 164.113 66.9983 164.713 66.9983C164.947 66.9862 165.175 66.9171 165.378 66.7971C165.58 66.6771 165.75 66.5097 165.873 66.3094L165.911 64.7017C165.809 64.7046 165.569 64.6887 165.465 64.6887Z" fill="#00A9E0"/>
<path d="M172.117 62.2544H170.779V65.8775C170.779 66.8347 170.906 67.1404 171.544 67.1404C171.792 67.1326 172.037 67.0855 172.27 67.0009L172.423 67.5619C171.965 67.8345 171.44 67.9758 170.906 67.9703C169.835 67.9703 169.223 67.5236 169.223 66.184V62.2544H168.457V61.7057L169.312 61.3869C169.392 60.7797 169.592 60.1944 169.898 59.6643L170.892 59.5117C170.816 60.138 170.778 60.7683 170.777 61.3992H172.307L172.117 62.2544Z" fill="#00A9E0"/>
<path d="M172.563 67.7919V67.2816C173.251 67.2432 173.405 67.1153 173.405 66.3888V63.315C173.405 62.3839 173.239 62.256 172.551 62.2307V61.7456L174.718 61.2736H174.96V66.3902C174.96 67.1131 175.062 67.2577 175.789 67.283V67.7934L172.563 67.7919ZM174.091 60.5066C173.9 60.504 173.714 60.4449 173.556 60.3367C173.399 60.2286 173.277 60.0761 173.205 59.8986C173.134 59.7211 173.117 59.5264 173.155 59.3391C173.194 59.1517 173.288 58.9801 173.424 58.8457C173.56 58.7114 173.733 58.6203 173.921 58.584C174.108 58.5477 174.303 58.5678 174.479 58.6417C174.655 58.7156 174.806 58.84 174.912 58.9994C175.018 59.1587 175.074 59.3458 175.074 59.5372C175.074 59.6656 175.048 59.7928 174.999 59.9113C174.949 60.0299 174.877 60.1373 174.785 60.2275C174.694 60.3177 174.586 60.3889 174.466 60.4368C174.347 60.4847 174.22 60.5084 174.091 60.5066V60.5066Z" fill="#00A9E0"/>
<path d="M179.279 67.9463C177.405 67.9463 176.207 66.7174 176.207 64.6036C176.207 62.5362 177.457 61.2227 179.318 61.2227C181.192 61.2227 182.39 62.4725 182.39 64.5646C182.39 66.8106 181.013 67.9463 179.279 67.9463ZM179.279 61.9463C178.259 61.9463 177.903 62.7371 177.903 64.5487C177.903 66.3986 178.247 67.2408 179.33 67.2408C180.236 67.2408 180.695 66.3733 180.695 64.561C180.695 62.6656 180.21 61.9492 179.279 61.9492V61.9463Z" fill="#00A9E0"/>
<path d="M189.21 66.3879C189.21 67.1108 189.35 67.2424 190 67.2807V67.791H186.822V67.2807C187.549 67.2554 187.651 67.1021 187.651 66.4385V63.4269C187.651 62.6614 187.332 62.3816 186.771 62.3816C186.207 62.384 185.666 62.6083 185.266 63.0062V66.4385C185.266 67.1021 185.369 67.2554 186.096 67.2807V67.791H182.87V67.2807C183.558 67.2424 183.711 67.1144 183.711 66.3879V63.3141C183.711 62.3831 183.546 62.2551 182.857 62.2298V61.7447L184.731 61.2344H184.923C185.084 61.5934 185.183 61.9775 185.216 62.37C185.477 62.0312 185.811 61.7547 186.192 61.5605C186.574 61.3664 186.993 61.2594 187.421 61.2474C187.665 61.2289 187.909 61.2642 188.137 61.3507C188.366 61.4373 188.572 61.5729 188.743 61.7481C188.913 61.9233 189.043 62.1338 189.123 62.3647C189.203 62.5955 189.231 62.8412 189.206 63.0843L189.21 66.3879Z" fill="#00A9E0"/>
</svg>
